<?xml version="1.0" encoding="UTF-8" standalone="no"?>
<!-- Created with Inkscape (http://www.inkscape.org/) -->
<svg xmlns:dc="http://purl.org/dc/elements/1.1/" xmlns:cc="http://creativecommons.org/ns#" xmlns:rdf="http://www.w3.org/1999/02/22-rdf-syntax-ns#" xmlns:svg="http://www.w3.org/2000/svg" xmlns="http://www.w3.org/2000/svg" xmlns:sodipodi="http://sodipodi.sourceforge.net/DTD/sodipodi-0.dtd" xmlns:inkscape="http://www.inkscape.org/namespaces/inkscape" version="1.1" width="200" height="199.85643" id="svg3257" inkscape:version="0.48.2 r9819" sodipodi:docname="PvdA Logo small.svg">
  <sodipodi:namedview pagecolor="#ffffff" bordercolor="#666666" borderopacity="1" objecttolerance="10" gridtolerance="10" guidetolerance="10" inkscape:pageopacity="0" inkscape:pageshadow="2" inkscape:window-width="1321" inkscape:window-height="984" id="namedview10437" showgrid="false" fit-margin-top="2" fit-margin-left="2" fit-margin-bottom="2" fit-margin-right="2" inkscape:zoom="0.97580736" inkscape:cx="468.37126" inkscape:cy="75.713965" inkscape:window-x="1920" inkscape:window-y="0" inkscape:window-maximized="0" inkscape:current-layer="g3846"/>
  <defs id="defs3259">
    <clipPath id="clipPath16">
      <path d="m 55,33.669 260.48,0 0,35.456 -260.48,0 0,-35.456 z" id="path18" inkscape:connector-curvature="0"/>
    </clipPath>
  </defs>
  <metadata id="metadata3262">
    <rdf:RDF>
      <cc:Work rdf:about="">
        <dc:format>image/svg+xml</dc:format>
        <dc:type rdf:resource="http://purl.org/dc/dcmitype/StillImage"/>
        <dc:title/>
      </cc:Work>
    </rdf:RDF>
  </metadata>
  <g transform="matrix(0.88444443,0,0,0.88444443,-291.93956,3.8004618)" id="layer1">
    <g transform="matrix(2.7663049,0,0,2.7663049,-310.38992,-664.16505)" id="g3846">
      <path d="m 272.42798,239.35516 -28.17047,11.7377 29.87243,-4.75376 22.12556,17.3131 -0.64558,28.58129 10.27049,-25.70556 -10.27049,-19.71933 -23.18194,-7.45344 z m -13.96786,11.44426 -21.12785,15.84589 6.57311,28.69867 32.68948,11.62032 15.90457,-13.61573 -26.40981,6.33835 -19.42588,-16.13933 1.23245,-20.42358 28.87473,-12.14852 -18.3108,-0.17597 z m 22.30162,2.40623 -16.72621,4.98852 21.24522,7.6295 3.16919,20.83441 -15.20032,8.92065 19.30851,-3.40394 2.34754,-24.12095 -14.14393,-14.84819 z m -13.43966,7.80556 -15.90458,3.16919 -3.69737,14.26129 16.66752,19.01507 -0.0586,-7.6295 -10.85736,-15.31769 13.85048,-13.49836 z m 6.86655,2.0541 -3.63868,1.5846 1.58458,3.11049 6.6318,0 -4.5777,-4.69509 z m -5.6341,1.5259 -3.46261,2.52361 6.92524,11.56163 5.22327,-2.93442 -6.98393,-3.87344 -0.17597,-6.04492 -1.5259,-1.23246 z m 37.85407,2.87574 -8.21639,25.9403 -21.36259,14.96556 -31.80916,-9.09671 -12.67671,-19.54326 7.57081,23.00588 32.68948,16.66753 28.22916,-11.97244 11.62032,-28.17048 -6.04492,-11.79638 z m -43.60553,0.70426 -3.87344,2.87573 8.39245,10.32917 4.0495,-2.28884 -8.56851,-10.91606 z m 10.38785,0.64558 10.27049,9.85966 -4.75376,-2.28885 -9.56622,8.80327 -0.0586,11.03343 18.3108,-12.44195 -3.99081,-14.7895 -10.2118,-0.17597 z m -15.66981,3.46261 -2.11279,3.87344 7.57082,7.62951 3.87343,-2.11279 -9.33146,-9.39016 z" id="path138" style="fill:#e12b1a;fill-opacity:1;fill-rule:nonzero;stroke:none" inkscape:connector-curvature="0"/>
    </g>
  </g>
</svg>