<?xml version="1.0" encoding="UTF-8"?>
<svg id="Layer_1" data-name="Layer 1" xmlns="http://www.w3.org/2000/svg" version="1.1" viewBox="0 0 99.9 99.1">
  <defs>
    <style>
      .cls-1 {
        fill: #fff;
      }

      .cls-1, .cls-2, .cls-3 {
        fill-rule: evenodd;
      }

      .cls-1, .cls-2, .cls-3, .cls-4 {
        stroke-width: 0px;
      }

      .cls-2 {
        fill: #ca1517;
      }

      .cls-3, .cls-4 {
        fill: #c00;
      }
    </style>
  </defs>
  <g>
    <rect class="cls-4" x="0" y="-.9" width="99.9" height="99.9"/>
    <path class="cls-1" d="M57.5,0c-2.4.4-4.9.7-7,2-2.4,1.5-4.6,3.4-6.2,5.7-1.3,1.8-3.6,2.6-5.5,3.8-2.7,1.7-5.1,3.8-7.1,6.2-.8,1-1.5,2.1-2.2,3.3-.3.5-1.6,2.2-1.5,2.7,0,0,3.3-2.3,3.7-2.6,1.7-1,3.6-1.8,5.6-2.3,3.5-1,7-.3,10.4.6.9.4,1.8.6,2.7.7.8,0,1.5-1.3,2.1-1.9,1.1-1.1,2.2-2.1,3.4-3,2.2-1.6,4.8-2.7,7.6-3,2,0,4,.3,5.9,1.1.6.2,1.2.4,1.8.7.3.2,2.7,1.5,2.7,1.5-.2-1.4-.6-2.7-1.2-3.9-.7-2-1.7-3.8-2.9-5.5-1.2-1.7-2.8-3-4.6-4-2.1-1.1-5.4-2.4-7.9-2.1Z"/>
    <path class="cls-1" d="M39.6,3.9c-.7,1.1-3.4,2.3-4.6,2.8-1.9.7-3.9,1.2-6,1.4-3.8.6-7.9,1.3-11.4,3.2-8.2,4.5-11.2,16.2-9.5,24.9.8,4.1,3.7,7.8,6.5,10.9,1.8,2,3.9,3.6,5.8,5.5,1.7,1.7,3.6,3.3,5.6,4.7,5.1,3.7,10.4,7.5,16,10,3.5,1.6,6.9,3.4,10.4,5.1,1.8.9,3.6,1.9,5.3,3.1,1,.6,4.9,2.5,5.1,3.8,0-.5-4.2-2.1-4.6-2.3-1.7-.9-3.4-1.7-5.2-2.3-2.4-.8-4.7-1.6-7-2.6-.3-.2-3.6-1.7-3.6-1.7,0,.4,1.6,1.7,1.9,2.1.7.9,1.4,1.8,2.1,2.7,1.6,2.3,2.7,4.9,3.1,7.7.5,2.7.3,5.5-.5,8.1-.6,1.4-1.5,2.7-2.7,3.7-.2.2-2.2,1.7-2.2,1.3,0-.6,1.8-2.7,2.1-3.3.8-1.5,1.3-3.2,1.4-4.9.2-2.1,0-4.2-.6-6.1-.2-.7-1.8-3.1-1.6-3.6-.4,1.1-.2,2.5-.6,3.7-.4,1.4-1.1,2.7-2,3.9-2.1,2.5-4.6,4.1-8,3.7-3.2-.4-6-2-9.2-2.5-1.7-.3-3.4-.1-5.1.4-.5.1-4.3,2.2-4.1,2.3.3.3,2.3,0,2.7,0,1.1.2,2.2.6,3.1,1.2,1.4,1,2.7,2,3.9,3.2,3.1,2.9,6,5.6,10.5,5.1,1.6-.2,3.2-.6,4.7-1.2,2.1-.7,4-.6,6.1-.8,3.6-.3,7-3,9.3-5.7,2.4-2.8,4.4-5.9,6-9.3,1.1-2.6,2.4-5.2,4-7.6,3.1-4.3,5.7-8.8,7.9-13.6,1.2-2.8,2.4-5.6,3.5-8.5.5-1.4,1-2.8,1.5-4.2.4-1.1,1-2.8.8-3.9-3.1,6.7-6.8,14-13.2,18.2-3.6,2.3-7.1,3.9-11.4,4.1-3.5.3-7,.1-10.4-.5-1.5-.4-3-1-4.4-1.8-3.8-1.9-7.6-4.2-10.3-7.6-1.7-2.3-3.2-4.6-4.5-7.2-4.4-8.2-3.9-19.6.6-27.7,1.9-3.4,4.6-6.2,7-9.2,1.2-1.4,2.3-2.9,3.3-4.4.9-1.3,1.7-3.1,2.3-4.1Z"/>
    <path class="cls-1" d="M74.3,9.5c0,.4.8,1.5,1,1.9.5,1,.8,2,1.1,3,.1.5.4.9.5,1.4.2.7.3,1.4.4,2.1,0,1,.3.9-.6.6-.8-.4-1.6-.9-2.4-1.5-.7-.3-1.5-.7-2.3-.9-2.3-1-4.8-1.6-7.4-1.7-3.4,0-6.7,1.9-9.3,3.9-1.1,1-2.2,2.2-3.2,3.4-.8.9-1.4.3-2.5-.1-2.7-.8-5.5-1.2-8.3-1.1-4.7,0-9.4,3.3-12.3,6.8-2.7,3.4-4.1,7.8-3.8,12.1.6,8.9,6.5,18.2,14.7,22.1,5,2.3,10.6,3.2,16.1,2.5,2.3-.4,4.5-1,6.6-1.9,1-.4,1.9-.8,2.9-1.3.5-.2,3.2-1.5,3.2-2.1-1,.7-2.1,1.2-3.3,1.7-1.3.5-2.6.8-3.9,1.1-3.8,1-7.8,1.2-11.7.5-5.4-.9-10.4-3.6-14.1-7.6-1-1.2-1.9-2.4-2.7-3.7-.2-.3-1.5-2.9-1.5-2.9.7.2,1.8,1.7,2.4,2.3,1.2,1.1,2.6,2.1,3.9,3,1.3.8,2.6,1.5,4.1,2,4.3,1.7,9.1,1.4,13.3-.6,4.2-2.3,7.3-5.9,7.3-10.9,0-4.5-3.6-9.8-8.7-9.1-2.4.3-4.5,1.5-6,3.4-1.4,1.7-1.5,3.5-1.5,5.6-1.4-.6-4-3.2-2.6-5.5-1.3-1.3,1.1-3.3,2.3-4.4,2.8-2.6,9.2-2.4,12.9-1.5,6.2,1.5,8.3,9.1,7,14.7-.3,1.4-.8,2.8-1.4,4.1-.3.5-.5,1.1-.8,1.6-.1.3-1.6,2.1-1.6,2.2,0,.3,6-2.4,6.5-2.7,1.9-1.2,3.7-2.7,5.2-4.3,3.4-4.2,5.3-9.5,5.3-15,0-1.6-.1-3.2-.5-4.7-.2-.7-.5-1.3-.9-1.9-.2-.4-1.2-1.4-1.2-1.9s1.9,1.6,2,1.7c.5.6,1,1.2,1.4,1.8.5.7.9,1.4,1.2,2.2.5,1,.5,2.1,1.6,1.7,1.9-.6,3.8-.9,5.8-.7.4,0,5.3,1.3,5.3,1.4-.5-1-1.1-2-1.7-2.9-.5-.7-1.1-1.4-1.7-2-.9-.9-2.4-1.8-3-2.8-.4-1.1-.7-2.3-.8-3.5-1.1-3.6-3.4-6.8-6.5-9-.5-.4-5.7-2.9-5.7-2.5ZM58.9,27.9,54.2,39.3c3.5,1.1,5.8,3,4.6,7.2-.6,2.6-2.9,4.6-5.6,4.9-9.6,1.1-7.5-14.6.9-12.1Z"/>
    <path class="cls-1" d="M82.8,34.3s.1,1.9.2,3.2c.2,3.1,0,6.2-.6,9.3-1.1,4.7-2.7,9.2-4.8,13.5-.5,1-1,2.1-1.6,3.1-.2.4-1.7,3.5-2.1,3.5.5,0,1.8-1.5,2.4-2,.9-.7,1.8-1.4,2.7-2.2,1.9-1.6,3.9-3.1,6-4.4,1.6-1.2,3.5-2.1,5.5-2.6,1.6-.3,3.2-.3,4.8,0,.6.2,1.2.4,1.7.7.2.1,1.2,1.3,1.4,1.3-.9,0,1.3-8.8,1.5-9.6.4-2.5,0-5-1.2-7.2-1.3-2.4-2.7-4.5-5.1-5.9-1-.7-2.2-1.1-3.4-1.4-.7-.2-5.4-.6-7.3.5Z"/>
    <path class="cls-1" d="M3.4,39.3c0,2.1-.3,4.2-.8,6.2-.6,1.7-1.1,3.3-1.7,5-1.2,4.1-1.2,8.4,0,12.5,2,6.8,7.4,11.5,13,15.5,3,2.1,6.3,3.8,9.8,5.1-.1,0-1.3-1.6-1.4-1.7-.7-.8-1.4-1.6-2.1-2.5-.8-1.2-1.6-2.5-2.2-3.8-1.1-2.3-1.7-4.7-1.9-7.2-.6-4.4.1-8.9-.7-13.2-.6-2.9-1.8-5.6-3.5-8-1-1.3-2.1-2.5-3.4-3.5-.9-.8-1.8-1.5-2.8-2.2-.5-.4-2.3-1.6-2.3-2.1Z"/>
    <path class="cls-1" d="M17,50.7c-.1.3.3,1.1.4,1.4.2.7.3,1.4.4,2.2.3,2.3.5,4.6.5,6.9-.2,3.9,0,7.8.8,11.6,1.4,6.6,6.4,13.6,13.6,14.3,4.2.4,7.1-.6,9.9-4,1.8-2.2,2.9-5.4,1.6-8.1-2.7-5.2-8.2-7.7-12.9-10.7-2.8-1.7-5.3-3.6-7.7-5.9-1.3-1.2-2.5-2.4-3.6-3.8-.5-.6-3.1-3.5-2.9-3.9Z"/>
    <path class="cls-1" d="M92.8,57.3c-.5.8-3.2,1.5-4.1,1.9-1.5.7-3,1.4-4.4,2.3-2.8,1.6-5.5,3.4-8,5.5-2.9,2.5-5.5,5.3-7.6,8.5-1.4,2.3-2.6,4.7-3.9,7-.8,1.4-1.6,2.8-2.5,4.1s-3,2.8-3.5,4.3c.2-.5,3.3-1.3,3.8-1.5,2.5-.6,5.1-.6,7.6-1,3.5-.4,6.8-1.3,10-2.7,5.9-2.7,9.9-8.9,10.9-15.2.5-2.9-.2-5.9.4-8.8.2-.9.5-1.9.8-2.8.1-.4.5-1.7.5-1.7Z"/>
    <path class="cls-2" d="M68.9,58.8"/>
  </g>
  <path class="cls-3" d="M54.3,44.4"/>
</svg>